<?xml version="1.0" standalone="no"?>
<!DOCTYPE svg PUBLIC "-//W3C//DTD SVG 20010904//EN"
 "http://www.w3.org/TR/2001/REC-SVG-20010904/DTD/svg10.dtd">
<svg version="1.0" xmlns="http://www.w3.org/2000/svg"
 width="1024.000000pt" height="1024.000000pt" viewBox="0 0 1024.000000 1024.000000"
 preserveAspectRatio="xMidYMid meet">

<g transform="translate(0.000000,1024.000000) scale(0.100000,-0.100000)"
fill="#000000" stroke="none">
<path d="M4725 9689 c-695 -70 -1276 -245 -1833 -551 -774 -426 -1425 -1100
-1845 -1908 -530 -1022 -656 -2208 -348 -3296 166 -585 464 -1176 835 -1654
748 -963 1927 -1593 3191 -1706 333 -29 813 -11 1130 42 382 64 752 175 1085
324 1018 455 1792 1185 2285 2155 425 835 579 1735 454 2650 -143 1050 -684
2061 -1486 2773 -453 402 -918 684 -1476 894 -345 129 -687 210 -1117 264
-148 18 -737 27 -875 13z m-1535 -2715 c222 -42 370 -143 458 -312 72 -137 73
-150 82 -677 9 -508 17 -594 66 -709 44 -103 43 -111 -13 -165 -55 -53 -125
-91 -168 -91 -61 0 -129 83 -171 208 l-21 62 -19 -27 c-10 -16 -36 -45 -58
-66 -278 -262 -786 -291 -1016 -58 -103 104 -150 229 -150 401 -1 420 337 666
849 620 68 -6 174 -24 234 -39 l109 -29 -4 177 c-4 155 -7 182 -27 226 -60
135 -181 185 -451 185 -170 0 -274 -19 -422 -74 -113 -42 -132 -39 -145 22
-12 59 -8 154 8 186 25 52 214 129 394 160 112 20 362 20 465 0z m4592 -17
c202 -53 223 -73 223 -212 0 -94 -13 -135 -42 -135 -8 0 -46 11 -83 24 -111
40 -267 66 -398 66 -161 0 -261 -30 -324 -97 -84 -88 -82 -250 4 -330 42 -40
151 -81 329 -127 285 -73 373 -113 489 -222 113 -107 170 -251 155 -394 -28
-259 -199 -436 -501 -517 -91 -24 -114 -27 -294 -27 -218 0 -309 15 -457 74
-106 43 -143 67 -159 106 -27 64 -13 184 25 218 19 17 25 16 153 -28 160 -55
248 -74 377 -82 224 -15 398 43 453 150 31 58 31 166 0 223 -45 85 -114 119
-385 189 -251 65 -363 114 -455 198 -260 242 -174 714 160 875 137 66 226 82
448 77 158 -3 199 -8 282 -29z m-3512 -32 c16 -8 34 -24 40 -35 9 -17 180
-701 321 -1285 l53 -220 12 45 c7 25 32 133 57 240 97 413 269 1133 283 1181
22 73 60 88 221 89 132 0 164 -7 187 -42 8 -13 30 -93 50 -178 19 -85 84 -373
145 -640 61 -267 121 -530 134 -585 l22 -99 33 129 c69 274 328 1223 359 1315
28 83 55 95 220 95 93 0 136 -4 145 -13 15 -15 21 5 -170 -612 -83 -267 -198
-645 -257 -840 -59 -195 -113 -367 -121 -382 -24 -46 -48 -53 -189 -53 -148 0
-179 6 -200 39 -14 21 -364 1404 -366 1444 -1 33 -18 -20 -53 -168 -19 -80
-48 -201 -65 -270 -16 -69 -75 -316 -131 -550 -61 -261 -108 -435 -119 -450
-25 -35 -79 -48 -196 -49 -119 -1 -169 11 -192 46 -19 29 -55 142 -348 1095
-118 383 -215 705 -215 716 0 42 27 49 188 51 92 1 130 -3 152 -14z m3816
-2336 c258 -36 328 -137 275 -394 -56 -272 -210 -593 -363 -758 -37 -40 -50
-47 -81 -47 -41 0 -77 28 -77 59 0 10 23 67 51 127 115 245 173 440 167 560
-4 86 -22 116 -89 154 -39 22 -58 25 -179 28 -148 5 -284 -11 -474 -54 -136
-30 -152 -30 -172 0 -14 23 -14 28 2 61 51 109 293 226 536 259 127 17 301 19
404 5z m-6007 -195 c619 -374 1600 -682 2497 -785 181 -20 535 -38 654 -33 36
2 128 5 205 8 570 21 1291 167 2035 411 274 89 283 92 315 71 53 -35 14 -112
-99 -195 -95 -71 -310 -194 -481 -277 -802 -389 -1723 -554 -2588 -464 -603
62 -1239 261 -1803 563 -480 257 -944 605 -944 709 0 23 43 68 66 68 9 0 74
-34 143 -76z"/>
<path d="M2836 5894 c-136 -30 -224 -93 -270 -193 -31 -69 -30 -218 2 -284 49
-97 139 -142 287 -141 150 2 295 51 386 132 86 77 139 214 139 365 0 73 -1 78
-24 87 -109 41 -403 61 -520 34z"/>
</g>
</svg>
